<?xml version="1.0" encoding="UTF-8" standalone="no"?>
<!-- Created with Inkscape (http://www.inkscape.org/) -->

<svg
   width="53.746834mm"
   height="20.928541mm"
   viewBox="0 0 53.746834 20.928541"
   version="1.1"
   id="svg1998"
   inkscape:version="1.2.2 (732a01da63, 2022-12-09)"
   sodipodi:docname="coesione-italia.svg"
   xmlns:inkscape="http://www.inkscape.org/namespaces/inkscape"
   xmlns:sodipodi="http://sodipodi.sourceforge.net/DTD/sodipodi-0.dtd"
   xmlns="http://www.w3.org/2000/svg"
   xmlns:svg="http://www.w3.org/2000/svg">
  <sodipodi:namedview
     id="namedview2000"
     pagecolor="#ffffff"
     bordercolor="#000000"
     borderopacity="0.25"
     inkscape:showpageshadow="2"
     inkscape:pageopacity="0.0"
     inkscape:pagecheckerboard="0"
     inkscape:deskcolor="#d1d1d1"
     inkscape:document-units="mm"
     showgrid="false"
     inkscape:zoom="0.73851712"
     inkscape:cx="37.913813"
     inkscape:cy="300.60238"
     inkscape:window-width="1920"
     inkscape:window-height="1009"
     inkscape:window-x="-8"
     inkscape:window-y="-8"
     inkscape:window-maximized="1"
     inkscape:current-layer="layer1" />
  <defs
     id="defs1995" />
  <g
     inkscape:label="Livello 1"
     inkscape:groupmode="layer"
     id="layer1"
     transform="translate(-85.979418,-69.070108)">
    <g
       id="g1801"
       transform="matrix(0.26458333,0,0,0.26458333,85.989378,68.620316)">
      <path
         class="st11"
         d="m 183.1,75.9 c -0.9,0 -1.7,-0.8 -1.7,-1.7 v 0 0 -38.7 c 0,-0.2 -0.1,-0.4 -0.3,-0.6 l -34,-19.6 c -0.8,-0.5 -1.1,-1.5 -0.6,-2.4 0.1,-0.2 0.4,-0.4 0.6,-0.6 L 163.2,3 c 1.8,-1.1 4.1,-1.1 5.9,0 l 32.8,19 c 0.5,0.3 0.8,0.9 0.8,1.5 v 37.9 c 0,2.1 -1.2,4.1 -3,5.1 l -15.8,9.2 c -0.2,0.1 -0.5,0.2 -0.8,0.2 z"
         id="path148"
         style="fill:#e4032d" />
      <path
         class="st12"
         d="m 166,2.8 c 0.9,0 1.9,0.2 2.7,0.7 l 32.8,19 c 0.4,0.2 0.6,0.6 0.6,1 v 37.9 c 0,1.9 -1,3.7 -2.7,4.6 l -15.8,9.1 c -0.2,0.1 -0.4,0.2 -0.6,0.2 -0.6,0 -1.2,-0.5 -1.2,-1.2 v 0 0 -38.6 c 0,-0.4 -0.2,-0.8 -0.6,-1 l -34,-19.7 c -0.6,-0.3 -0.8,-1 -0.4,-1.6 0.1,-0.2 0.3,-0.3 0.4,-0.5 L 163.3,3.4 C 164.2,3 165.1,2.8 166,2.8 m 0,-1.1 c -1.1,0 -2.2,0.3 -3.2,0.9 l -16.1,9.3 c -1.1,0.6 -1.5,2 -0.9,3.1 0.2,0.4 0.5,0.7 0.9,0.9 l 34,19.7 v 0.1 38.7 c 0,1.2 1,2.2 2.3,2.3 0.4,0 0.8,-0.1 1.1,-0.3 l 15.8,-9.1 c 2,-1.2 3.2,-3.3 3.2,-5.6 v -38 c 0,-0.8 -0.4,-1.6 -1.1,-2 L 169.2,2.8 C 168.3,2 167.1,1.7 166,1.7 Z"
         id="path150"
         style="fill:#ffffff" />
      <path
         class="st13"
         d="m 157.1,80.2 c -1.1,0 -2,-0.9 -2,-2 V 51.4 c 0,-0.3 -0.2,-0.6 -0.4,-0.7 L 131.1,37.1 c -0.9,-0.6 -1.2,-1.8 -0.7,-2.7 0.2,-0.3 0.4,-0.5 0.7,-0.7 l 14.4,-8.3 c 1.4,-0.8 3.2,-0.8 4.7,0 l 23.5,13.5 c 0.6,0.3 1,1 1,1.7 v 27.1 c 0,1.7 -0.9,3.2 -2.3,4 l -14.2,8.2 c -0.4,0.2 -0.7,0.3 -1.1,0.3 z"
         id="path152"
         style="fill:#00a04d" />
      <path
         class="st12"
         d="m 147.9,25.3 c 0.7,0 1.4,0.2 2.1,0.5 l 23.5,13.5 c 0.4,0.2 0.7,0.7 0.7,1.2 v 27.2 c 0,1.5 -0.8,2.8 -2.1,3.6 l -14.2,8.2 c -0.7,0.4 -1.5,0.1 -1.9,-0.5 -0.1,-0.2 -0.2,-0.5 -0.2,-0.7 V 51.4 c 0,-0.5 -0.3,-1 -0.7,-1.2 L 131.4,36.5 c -0.7,-0.4 -0.9,-1.3 -0.5,-1.9 0.1,-0.2 0.3,-0.4 0.5,-0.5 l 14.4,-8.3 c 0.6,-0.4 1.3,-0.5 2.1,-0.5 m 0,-1.1 c -0.9,0 -1.8,0.2 -2.6,0.7 l -14.4,8.3 c -1.2,0.7 -1.6,2.2 -0.9,3.4 0.2,0.4 0.5,0.7 0.9,0.9 l 23.6,13.7 c 0.1,0.1 0.2,0.2 0.2,0.3 v 26.8 c 0,1.4 1.1,2.5 2.5,2.5 0.4,0 0.9,-0.1 1.3,-0.3 l 14.2,-8.2 c 1.6,-0.9 2.6,-2.7 2.6,-4.6 V 40.6 c 0,-0.9 -0.5,-1.7 -1.3,-2.2 L 150.5,24.9 c -0.8,-0.5 -1.7,-0.7 -2.6,-0.7 z"
         id="path154"
         style="fill:#ffffff" />
      <path
         class="st14"
         d="m 146.9,75.7 c -0.3,0 -0.5,-0.1 -0.8,-0.2 l -15.7,-9.1 c -0.7,-0.4 -1,-1.3 -0.6,-2.1 0.1,-0.2 0.3,-0.4 0.6,-0.6 l 15.7,-9 c 0.7,-0.4 1.7,-0.2 2.1,0.6 0.1,0.2 0.2,0.5 0.2,0.8 v 0 18.1 c 0,0.8 -0.7,1.4 -1.5,1.5 z"
         id="path156"
         style="fill:#1f3d8a" />
      <path
         class="st12"
         d="m 146.9,55 c 0.6,0 1,0.4 1,1 v 18.2 c 0,0.6 -0.4,1 -1,1 -0.2,0 -0.3,-0.1 -0.5,-0.1 L 130.7,66 c -0.5,-0.3 -0.6,-0.9 -0.4,-1.3 0.1,-0.1 0.2,-0.3 0.4,-0.4 l 15.7,-9 c 0.1,-0.2 0.3,-0.3 0.5,-0.3 m 0,-1 c -0.4,0 -0.7,0.1 -1,0.3 l -15.7,9.1 c -1,0.6 -1.3,1.9 -0.7,2.8 0.2,0.3 0.4,0.6 0.7,0.7 l 15.7,9 c 1,0.5 2.3,0.2 2.8,-0.8 0.2,-0.3 0.3,-0.6 0.3,-1 v 0 -18.2 c -0.1,-1.1 -1,-2 -2.1,-1.9 z"
         id="path158"
         style="fill:#ffffff" />
      <path
         class="st14"
         d="M 139.5,78.3 119.4,66.7 c -0.9,-0.6 -1.2,-1.8 -0.6,-2.7 0.2,-0.2 0.4,-0.5 0.6,-0.6 v 0 l 20.1,-11.7 c 0.3,-0.1 0.4,-0.5 0.3,-0.8 -0.1,-0.3 -0.3,-0.5 -0.6,-0.5 H 0.5 v 29.1 h 138.7 c 0.3,0 0.6,-0.2 0.6,-0.5 0.1,-0.3 0,-0.6 -0.3,-0.7 z"
         id="path160"
         style="fill:#1f3d8a" />
      <path
         class="st14"
         d="M 19.9,24.2 H 6.5 v 2.5 h 5.3 v 13.6 h 2.9 V 26.7 h 5.2 V 24.2 Z M 1.1,40.3 H 3.9 V 24.2 H 1 Z M 23.7,19.5 c 4.6,0 8.3,-3.7 8.3,-8.3 0,-4.6 -3.7,-8.3 -8.3,-8.3 -4.6,0 -8.3,3.7 -8.3,8.3 v 0 0 c 0,4.5 3.7,8.3 8.3,8.3 z m 0,-13.8 c 3.1,0 5.6,2.5 5.6,5.6 0,3.1 -2.5,5.6 -5.6,5.6 -3.1,0 -5.6,-2.5 -5.6,-5.6 v 0 0 c 0.1,-3.1 2.6,-5.6 5.6,-5.6 z m 84,13.6 h 11.6 v -2.5 h -8.8 v -4.4 h 6.9 V 9.9 h -6.9 V 5.7 h 8.8 V 3.2 h -11.6 v 6.7 h -1.4 v 2.5 h 1.4 z M 8.3,19.5 c 2.2,0 4.3,-0.8 5.8,-2.4 L 12.2,15.2 C 10,17.4 6.5,17.4 4.3,15.2 2.1,13 2.1,9.5 4.3,7.3 6.5,5.1 10,5.1 12.2,7.3 l 2,-2 C 10.9,2.1 5.7,2.1 2.4,5.3 c -3.3,3.2 -3.2,8.5 0,11.8 1.6,1.5 3.7,2.3 5.9,2.4 z m 84.2,-11.7 8.3,11.5 h 2.9 V 3.1 h -2.9 V 14.7 L 92.5,3.2 h -2.8 v 16.2 h 2.8 z M 67.2,3.1 h -2.8 v 16.2 h 2.8 z M 47.5,19.3 v -2.5 h -8.8 v -4.4 h 6.9 V 9.9 H 38.7 V 5.7 h 8.8 V 3.2 H 35.8 v 6.7 h -1.4 v 2.5 h 1.4 v 6.9 c 0,0 11.7,0 11.7,0 z m -21.8,4.9 -6.4,16.1 h 3 l 1.4,-3.6 h 7.2 l 1.4,3.6 h 2.9 L 28.9,24.2 Z m -1.1,10 2.7,-6.9 2.7,6.9 z m 62.2,-23 c 0,-4.6 -3.7,-8.3 -8.3,-8.3 -4.6,0 -8.3,3.7 -8.3,8.3 0,4.6 3.7,8.3 8.3,8.3 v 0 c 4.6,0 8.3,-3.7 8.3,-8.3 z m -8.3,5.7 c -3.1,0 -5.6,-2.5 -5.6,-5.6 0,-3.1 2.5,-5.6 5.6,-5.6 3.1,0 5.6,2.5 5.6,5.6 v 0 0 c -0.1,3 -2.6,5.5 -5.6,5.6 z M 40.7,24.2 H 37.9 V 40.4 H 49 v -2.5 h -8.3 c 0,0 0,-13.7 0,-13.7 z m 22.7,0 -6.3,16.2 H 60 l 1.4,-3.6 h 7.2 l 1.4,3.6 h 2.9 L 66.6,24.2 Z m -1,10 2.7,-6.9 2.7,6.9 z m -1,-19.5 c 0,-1.6 -0.8,-3 -2.2,-3.8 C 58.5,10.6 57.9,10.3 57.2,10 56.5,9.7 55.8,9.5 55.2,9.3 54.6,9.1 54.1,8.9 53.6,8.5 53.2,8.2 52.9,7.8 52.9,7.3 c 0,-0.5 0.2,-1 0.7,-1.2 0.6,-0.3 1.2,-0.5 1.9,-0.4 1.3,-0.1 2.7,0.4 3.5,1.5 l 2,-2 C 60.4,4.5 59.7,3.9 58.8,3.6 57.8,3.2 56.8,3 55.7,3 c -1.4,-0.1 -2.9,0.3 -4,1.2 -1,0.8 -1.5,2.1 -1.5,3.4 0,1 0.3,1.9 0.9,2.6 0.6,0.7 1.3,1.2 2.1,1.5 0.8,0.3 1.7,0.6 2.5,0.9 0.7,0.2 1.4,0.5 2.1,0.9 0.5,0.3 0.9,0.8 0.9,1.4 0,0.6 -0.3,1.1 -0.8,1.4 -0.7,0.4 -1.4,0.6 -2.2,0.5 -1.5,0 -2.9,-0.5 -4,-1.5 l -2,2 c 1.5,1.5 3.6,2.3 5.8,2.2 1.6,0.1 3.2,-0.3 4.4,-1.3 1.1,-0.9 1.6,-2.2 1.5,-3.5 z m -9.8,25.6 h 2.8 V 24.2 H 51.6 Z M 110.2,28.2 C 110,26 108,24.5 105.8,24.7 c -1.8,0.2 -3.3,1.7 -3.5,3.5 v 0.2 h 2 v -0.2 c 0,-0.5 0.2,-1 0.6,-1.3 0.8,-0.7 2,-0.6 2.7,0.3 0.6,0.7 0.6,1.7 0,2.4 l -5.2,5.1 v 1.5 h 7.8 v -2 h -4.4 l 3.3,-3.2 c 0.7,-0.8 1.1,-1.8 1.1,-2.8 z m 2.3,-3.6 v 2 h 4.4 l -3.5,9.6 h 2.2 l 3.7,-10.3 v -1.3 z m -23.4,3.8 1.8,0.9 v 6.9 H 93 V 24.6 h -1.7 z m 7.6,3 h 4.4 v -2 h -4.4 z m -9.6,-3.2 c -0.3,-2.2 -2.4,-3.7 -4.6,-3.4 -1.7,0.3 -3.1,1.6 -3.4,3.4 v 0.2 h 2 v -0.2 c 0,-0.5 0.2,-1 0.6,-1.3 0.7,-0.7 1.9,-0.7 2.7,0 0.7,0.7 0.7,1.9 0,2.7 v 0 l -5.2,5.2 v 1.5 h 7.9 v -2 H 82.7 L 86,31.1 c 0.7,-0.9 1.1,-1.9 1.1,-2.9 z"
         id="path162"
         style="fill:#1f3d8a" />
      <path
         class="st12"
         d="m 12.4,64 c -1.9,-0.5 -2.5,-0.8 -2.5,-1.8 0,-1 0.7,-1.5 2.1,-1.5 1,0 3.2,0.3 3.2,0.3 l 0.2,-1.5 c -1.2,-0.2 -2.4,-0.4 -3.6,-0.4 -2.2,0 -3.8,1 -3.8,3.2 0,2 1.1,2.7 3.5,3.3 1.7,0.4 2.2,0.7 2.2,1.7 0,1.2 -0.7,1.8 -2,1.8 -1.2,0 -3.4,-0.3 -3.4,-0.3 l -0.2,1.5 c 1.2,0.2 2.4,0.4 3.7,0.4 2.2,0 3.8,-1.1 3.8,-3.5 0,-1.9 -0.8,-2.5 -3.2,-3.2 z m 5.2,6.6 h 1.8 V 59.3 H 17.6 Z M 26,60.8 c 1,0 1.9,0.1 2.9,0.3 v -1.5 c -1.1,-0.3 -2.2,-0.4 -3.2,-0.4 -3.4,0 -4.2,1.8 -4.2,5.8 0,3.8 0.8,5.8 4.2,5.8 1.1,0 2.1,-0.2 3.2,-0.4 V 68.9 C 28,69 27,69.1 26,69.1 c -2.2,0 -2.6,-1.1 -2.6,-4.2 0,-3.1 0.5,-4.1 2.6,-4.1 z m 5,9.8 h 1.8 V 59.3 h -1.9 z m 6.2,-11.3 h -1.9 v 11.3 h 6.3 V 69 h -4.5 z m 6,11.3 h 1.7 V 59.3 H 43.1 Z M 53,59.3 h -3.7 l -2.8,11.3 h 1.8 l 0.6,-2.4 h 4.3 l 0.6,2.4 h 1.8 z m -3.6,7.3 1.4,-5.7 h 0.8 l 1.3,5.7 z"
         id="path164"
         style="fill:#ffffff" />
    </g>
  </g>
</svg>
