<?xml version="1.0" encoding="UTF-8" standalone="no"?>
<!-- Created with Inkscape (http://www.inkscape.org/) -->

<svg
   width="22.760265mm"
   height="20.503006mm"
   viewBox="0 0 22.760265 20.503006"
   version="1.1"
   id="svg4750"
   inkscape:version="1.2.2 (732a01da63, 2022-12-09)"
   sodipodi:docname="UE.svg"
   xmlns:inkscape="http://www.inkscape.org/namespaces/inkscape"
   xmlns:sodipodi="http://sodipodi.sourceforge.net/DTD/sodipodi-0.dtd"
   xmlns="http://www.w3.org/2000/svg"
   xmlns:svg="http://www.w3.org/2000/svg">
  <sodipodi:namedview
     id="namedview4752"
     pagecolor="#ffffff"
     bordercolor="#000000"
     borderopacity="0.25"
     inkscape:showpageshadow="2"
     inkscape:pageopacity="0.0"
     inkscape:pagecheckerboard="0"
     inkscape:deskcolor="#d1d1d1"
     inkscape:document-units="mm"
     showgrid="false"
     inkscape:zoom="0.73851712"
     inkscape:cx="155.71745"
     inkscape:cy="98.846727"
     inkscape:window-width="1920"
     inkscape:window-height="1009"
     inkscape:window-x="-8"
     inkscape:window-y="-8"
     inkscape:window-maximized="1"
     inkscape:current-layer="layer1" />
  <defs
     id="defs4747" />
  <g
     inkscape:label="Livello 1"
     inkscape:groupmode="layer"
     id="layer1"
     transform="translate(-54.898516,-122.66406)">
    <g
       id="g1818"
       transform="matrix(0.26458333,0,0,0.26458333,-8.4956513,122.21427)">
      <text
         class="st3 st4 st5"
         id="text108"
         x="255.5414"
         y="67.013496"
         style="font-size:8.69px;font-family:Arial-BoldMT;fill:#164194">Cofinanziato</text>
      <text
         class="st3 st4 st5"
         id="text110"
         x="239.60139"
         y="77.443497"
         style="font-size:8.69px;font-family:Arial-BoldMT;fill:#164194">dall’Unione Europea</text>
      <rect
         x="239.60001"
         y="1.7"
         class="st3"
         width="84"
         height="56"
         id="rect112"
         style="fill:#164194" />
      <polygon
         class="st6"
         points="283.2,13.1 282.6,11.1 284.3,9.9 282.2,9.9 281.6,7.9 281,9.9 278.9,9.9 280.6,11.1 279.9,13.1 281.6,11.8 "
         id="polygon114"
         style="fill:#ffed00" />
      <polygon
         class="st6"
         points="274.7,15.4 274,13.4 275.7,12.2 273.7,12.2 273,10.2 272.4,12.2 270.3,12.2 272,13.4 271.4,15.4 273,14.1 "
         id="polygon116"
         style="fill:#ffed00" />
      <polygon
         class="st6"
         points="264,18.5 265.7,19.7 265.1,21.6 266.7,20.4 268.4,21.6 267.8,19.7 269.5,18.5 267.4,18.5 266.7,16.5 266.1,18.5 "
         id="polygon118"
         style="fill:#ffed00" />
      <polygon
         class="st6"
         points="265.5,28.2 267.2,27 265.1,27 264.4,25.1 263.8,27 261.7,27 263.4,28.2 262.8,30.2 264.4,29 266.1,30.2 "
         id="polygon120"
         style="fill:#ffed00" />
      <polygon
         class="st6"
         points="266.1,35.6 264,35.6 265.7,36.8 265.1,38.8 266.7,37.6 268.4,38.8 267.8,36.8 269.5,35.6 267.4,35.6 266.7,33.6 "
         id="polygon122"
         style="fill:#ffed00" />
      <polygon
         class="st6"
         points="272.4,41.9 270.3,41.9 272,43.1 271.4,45.1 273,43.9 274.7,45.1 274.1,43.1 275.7,41.9 273.7,41.9 273,39.9 "
         id="polygon124"
         style="fill:#ffed00" />
      <polygon
         class="st6"
         points="281,44.2 278.9,44.2 280.6,45.4 279.9,47.3 281.6,46.1 283.2,47.3 282.6,45.4 284.3,44.2 282.2,44.2 281.6,42.2 "
         id="polygon126"
         style="fill:#ffed00" />
      <polygon
         class="st6"
         points="289.5,41.9 287.4,41.9 289.1,43.1 288.5,45.1 290.1,43.9 291.8,45.1 291.2,43.1 292.9,41.9 290.8,41.9 290.1,39.9 "
         id="polygon128"
         style="fill:#ffed00" />
      <polygon
         class="st6"
         points="295.8,35.6 293.7,35.6 295.4,36.8 294.8,38.8 296.4,37.6 298.1,38.8 297.5,36.8 299.1,35.6 297.1,35.6 296.4,33.6 "
         id="polygon130"
         style="fill:#ffed00" />
      <polygon
         class="st6"
         points="298.7,25 298.1,27 296,27 297.7,28.2 297.1,30.2 298.7,29 300.4,30.2 299.7,28.2 301.4,27 299.3,27 "
         id="polygon132"
         style="fill:#ffed00" />
      <polygon
         class="st6"
         points="298.1,21.6 297.5,19.7 299.1,18.5 297.1,18.5 296.4,16.5 295.8,18.5 293.7,18.5 295.4,19.7 294.8,21.6 296.4,20.4 "
         id="polygon134"
         style="fill:#ffed00" />
      <polygon
         class="st6"
         points="287.5,12.2 289.1,13.4 288.5,15.4 290.2,14.1 291.8,15.4 291.2,13.4 292.9,12.2 290.8,12.2 290.2,10.2 289.5,12.2 "
         id="polygon136"
         style="fill:#ffed00" />
    </g>
  </g>
</svg>
